<?xml version="1.0" standalone="no"?>
<!DOCTYPE svg PUBLIC "-//W3C//DTD SVG 20010904//EN"
 "http://www.w3.org/TR/2001/REC-SVG-20010904/DTD/svg10.dtd">
<svg version="1.0" xmlns="http://www.w3.org/2000/svg"
 width="126.000000pt" height="126.000000pt" viewBox="0 0 126.000000 126.000000"
 preserveAspectRatio="xMidYMid meet">
<metadata>
Created by potrace 1.14, written by Peter Selinger 2001-2017
</metadata>
<g transform="translate(0.000000,126.000000) scale(0.100000,-0.100000)"
fill="#000000" stroke="none">
<path d="M514 1150 c-309 -73 -486 -406 -372 -698 19 -47 19 -54 5 -65 -8 -7
-36 -28 -61 -47 -74 -57 -61 -64 16 -9 54 39 73 48 79 37 13 -20 11 -28 -13
-49 l-23 -20 31 15 c23 11 34 12 43 3 18 -18 13 -32 -21 -58 -17 -13 -36 -29
-42 -34 -6 -6 -40 -34 -74 -63 -90 -73 -67 -65 42 16 135 102 132 100 153 76
26 -30 101 -77 159 -102 137 -57 327 -44 460 33 227 132 322 428 215 670 -17
39 -17 43 -1 66 9 13 22 40 29 58 9 29 9 38 -4 50 -13 13 -23 13 -74 3 l-60
-13 -45 35 c-127 96 -290 132 -442 96z"/>
</g>
</svg>
