<svg width="165" height="23" viewBox="0 0 165 23" fill="none" xmlns="http://www.w3.org/2000/svg">
<path d="M3.75 22.625H0.125C0.041667 22.625 0 22.5729 0 22.4688L0.0625 0.48438C0.0625 0.40104 0.104167 0.35938 0.1875 0.35938H4.09375C4.17708 0.35938 4.25 0.40104 4.3125 0.48438L7.23438 4.70312L10.1406 0.48438C10.2032 0.40104 10.2813 0.35938 10.375 0.35938H14.2969C14.3906 0.35938 14.4375 0.40104 14.4375 0.48438L14.5 22.4688C14.5 22.5729 14.4584 22.625 14.375 22.625H10.75C10.6667 22.625 10.625 22.5729 10.625 22.4688L10.5938 6.14062L7.23438 11.0156L3.90625 6.14062L3.875 22.4688C3.875 22.5729 3.83334 22.625 3.75 22.625ZM16.1094 22.4688L20.0782 0.48438C20.099 0.40104 20.1511 0.35938 20.2344 0.35938H24.875C24.9584 0.35938 25.0104 0.40104 25.0313 0.48438L28.8438 22.4688C28.8542 22.5729 28.8125 22.625 28.7188 22.625H25.1719C25.0677 22.625 25.0104 22.5729 25 22.4688L24.6563 20.125H20.2969L19.9532 22.4688C19.9427 22.5729 19.8906 22.625 19.7969 22.625H16.2344C16.1511 22.625 16.1094 22.5729 16.1094 22.4688ZM22.375 7.71875L20.9375 16.7031H24.0156L22.7032 7.71875L22.5156 6.53125L22.375 7.71875ZM34.3282 22.625H31.125C30.9584 22.625 30.875 22.5521 30.875 22.4062L30.8438 0.60938C30.8438 0.44271 30.9271 0.35938 31.0938 0.35938H33.9844L39.3906 12.9688L39.2344 0.60938C39.2344 0.44271 39.3282 0.35938 39.5156 0.35938H42.6875C42.8125 0.35938 42.875 0.44271 42.875 0.60938L42.9063 22.4375C42.9063 22.5625 42.8542 22.625 42.75 22.625H39.9375L34.3906 10.8438L34.625 22.375C34.625 22.5417 34.5261 22.625 34.3282 22.625ZM51.5469 22.9375C50.3906 22.9375 49.349 22.651 48.4219 22.0781C47.4844 21.5052 46.7292 20.7344 46.1563 19.7656C45.5938 18.7969 45.3125 17.7135 45.3125 16.5156V6.375C45.3125 5.20833 45.599 4.14583 46.1719 3.1875C46.7344 2.21875 47.4896 1.44792 48.4375 0.875C49.3854 0.29167 50.4219 0 51.5469 0C52.724 0 53.7865 0.28125 54.7344 0.84375C55.6823 1.41667 56.4323 2.18229 56.9844 3.14062C57.5469 4.09896 57.8282 5.17708 57.8282 6.375V7.84375C57.8282 7.92708 57.7761 7.96875 57.6719 7.96875H54.0782C53.9948 7.96875 53.9532 7.92708 53.9532 7.84375V6.625C53.9532 5.8125 53.724 5.14062 53.2656 4.60938C52.8073 4.07812 52.2344 3.8125 51.5469 3.8125C50.9323 3.8125 50.3854 4.06771 49.9063 4.57812C49.4271 5.08854 49.1875 5.6875 49.1875 6.375V16.5156C49.1875 17.2135 49.4219 17.8177 49.8906 18.3281C50.3594 18.8281 50.9115 19.0781 51.5469 19.0781C52.2344 19.0781 52.8073 18.8333 53.2656 18.3438C53.724 17.8438 53.9532 17.2344 53.9532 16.5156V14.9375H51.7188C51.6042 14.9375 51.5469 14.8854 51.5469 14.7812V11.2031C51.5469 11.099 51.6042 11.0469 51.7188 11.0469H57.7032C57.7865 11.0469 57.8282 11.099 57.8282 11.2031V16.5156C57.8282 17.7135 57.5469 18.7969 56.9844 19.7656C56.4115 20.7344 55.6563 21.5052 54.7188 22.0781C53.7813 22.651 52.724 22.9375 51.5469 22.9375ZM59.0156 22.4688L62.9844 0.48438C63.0052 0.40104 63.0573 0.35938 63.1406 0.35938H67.7813C67.8646 0.35938 67.9167 0.40104 67.9375 0.48438L71.75 22.4688C71.7604 22.5729 71.7188 22.625 71.625 22.625H68.0782C67.974 22.625 67.9167 22.5729 67.9063 22.4688L67.5625 20.125H63.2032L62.8594 22.4688C62.849 22.5729 62.7969 22.625 62.7032 22.625H59.1406C59.0573 22.625 59.0156 22.5729 59.0156 22.4688ZM65.2813 7.71875L63.8438 16.7031H66.9219L65.6094 7.71875L65.4219 6.53125L65.2813 7.71875ZM84.6719 22.625H81.0782C81.0052 22.625 80.974 22.5729 80.9844 22.4688L84.6406 11.0469L81.0469 0.48438C81.0261 0.40104 81.0573 0.35938 81.1406 0.35938H84.7344C84.8386 0.35938 84.9011 0.40104 84.9219 0.48438L87.0625 8.09375L89.2344 0.48438C89.2552 0.40104 89.3229 0.35938 89.4375 0.35938H92.9844C93.0677 0.35938 93.099 0.40104 93.0782 0.48438L89.5 11.0156L93.1094 22.4688C93.1511 22.5729 93.1198 22.625 93.0156 22.625H89.4375C89.3438 22.625 89.2761 22.5729 89.2344 22.4688L87.0625 14.2031L84.8594 22.4688C84.849 22.5729 84.7865 22.625 84.6719 22.625ZM98.75 22.625H95.1563C95.0521 22.625 95 22.5729 95 22.4688L95.0625 0.48438C95.0625 0.40104 95.1042 0.35938 95.1875 0.35938H101.343C103.302 0.35938 104.849 0.95833 105.984 2.15625C107.13 3.34375 107.703 4.96354 107.703 7.01562C107.703 8.51562 107.406 9.8229 106.812 10.9375C106.208 12.0417 105.427 12.8958 104.468 13.5C103.51 14.1042 102.468 14.4062 101.343 14.4062H98.9063V22.4688C98.9063 22.5729 98.8542 22.625 98.75 22.625ZM101.343 4.15625L98.9063 4.1875V10.5312H101.343C102.02 10.5312 102.609 10.2083 103.109 9.5625C103.609 8.90625 103.859 8.05729 103.859 7.01562C103.859 6.18229 103.635 5.5 103.187 4.96875C102.739 4.42708 102.125 4.15625 101.343 4.15625ZM113.375 22.625H109.75C109.666 22.625 109.625 22.5729 109.625 22.4688L109.687 0.48438C109.687 0.40104 109.729 0.35938 109.812 0.35938H116.281C117.437 0.35938 118.5 0.64062 119.468 1.20312C120.437 1.76562 121.208 2.52083 121.781 3.46875C122.364 4.41667 122.656 5.48958 122.656 6.6875C122.656 7.46875 122.536 8.17708 122.296 8.8125C122.057 9.4479 121.776 9.9844 121.453 10.4219C121.14 10.8594 120.854 11.1823 120.593 11.3906C121.75 12.6719 122.328 14.1771 122.328 15.9062L122.359 22.4688C122.359 22.5729 122.307 22.625 122.203 22.625H118.578C118.494 22.625 118.453 22.5938 118.453 22.5312V15.9062C118.453 15.1354 118.182 14.4688 117.64 13.9062C117.099 13.3438 116.432 13.0625 115.64 13.0625H113.531L113.5 22.4688C113.5 22.5729 113.458 22.625 113.375 22.625ZM116.281 4.1875H113.531V9.2188H116.281C116.937 9.2188 117.52 8.97396 118.031 8.48438C118.552 7.99479 118.812 7.39583 118.812 6.6875C118.812 6.01042 118.562 5.42708 118.062 4.9375C117.562 4.4375 116.968 4.1875 116.281 4.1875ZM135.531 22.625H125.187C125.104 22.625 125.062 22.5729 125.062 22.4688L125.093 0.48438C125.093 0.40104 125.135 0.35938 125.218 0.35938H135.5C135.583 0.35938 135.625 0.41146 135.625 0.51562V4.09375C135.625 4.17708 135.583 4.21875 135.5 4.21875H128.937V9.2188H135.5C135.583 9.2188 135.625 9.2604 135.625 9.3438L135.656 12.9688C135.656 13.0521 135.614 13.0938 135.531 13.0938H128.937V18.6875H135.531C135.614 18.6875 135.656 18.7396 135.656 18.8438V22.5C135.656 22.5833 135.614 22.625 135.531 22.625ZM143.937 22.9375C142.802 22.9375 141.755 22.6458 140.796 22.0625C139.849 21.4792 139.088 20.7031 138.515 19.7344C137.953 18.7552 137.672 17.6823 137.672 16.5156V15.0469C137.672 14.9323 137.724 14.875 137.828 14.875H141.422C141.505 14.875 141.546 14.9323 141.546 15.0469V16.5156C141.546 17.2135 141.781 17.8177 142.25 18.3281C142.718 18.8281 143.281 19.0781 143.937 19.0781C144.604 19.0781 145.172 18.8229 145.64 18.3125C146.109 17.7917 146.343 17.1927 146.343 16.5156C146.343 15.7344 145.833 15.0521 144.812 14.4688C144.645 14.3646 144.427 14.2396 144.156 14.0938C143.895 13.9375 143.583 13.7604 143.218 13.5625C142.854 13.3646 142.5 13.1719 142.156 12.9844C141.812 12.7865 141.479 12.599 141.156 12.4219C139.989 11.7344 139.119 10.875 138.546 9.8438C137.984 8.80208 137.703 7.63542 137.703 6.34375C137.703 5.15625 137.994 4.08333 138.578 3.125C139.161 2.17708 139.922 1.42708 140.859 0.875C141.807 0.3125 142.833 0.03125 143.937 0.03125C145.073 0.03125 146.114 0.3125 147.062 0.875C148.01 1.44792 148.765 2.20833 149.328 3.15625C149.901 4.10417 150.187 5.16667 150.187 6.34375V8.96875C150.187 9.05208 150.145 9.09375 150.062 9.09375H146.468C146.385 9.09375 146.343 9.05208 146.343 8.96875L146.312 6.34375C146.312 5.59375 146.078 4.98438 145.609 4.51562C145.14 4.04688 144.583 3.8125 143.937 3.8125C143.281 3.8125 142.718 4.0625 142.25 4.5625C141.781 5.0625 141.546 5.65625 141.546 6.34375C141.546 7.04167 141.692 7.625 141.984 8.09375C142.286 8.5625 142.833 9.01042 143.625 9.4375C143.708 9.4792 143.901 9.5833 144.203 9.75C144.505 9.9167 144.838 10.1042 145.203 10.3125C145.578 10.5104 145.916 10.6927 146.218 10.8594C146.52 11.0156 146.703 11.1094 146.765 11.1406C147.828 11.7344 148.666 12.4635 149.281 13.3281C149.906 14.1927 150.218 15.2552 150.218 16.5156C150.218 17.7344 149.937 18.8281 149.375 19.7969C148.802 20.7656 148.041 21.5312 147.093 22.0938C146.145 22.6562 145.093 22.9375 143.937 22.9375ZM157.875 22.9375C156.739 22.9375 155.692 22.6458 154.734 22.0625C153.786 21.4792 153.026 20.7031 152.453 19.7344C151.89 18.7552 151.609 17.6823 151.609 16.5156V15.0469C151.609 14.9323 151.661 14.875 151.765 14.875H155.359C155.442 14.875 155.484 14.9323 155.484 15.0469V16.5156C155.484 17.2135 155.718 17.8177 156.187 18.3281C156.656 18.8281 157.218 19.0781 157.875 19.0781C158.541 19.0781 159.109 18.8229 159.578 18.3125C160.046 17.7917 160.281 17.1927 160.281 16.5156C160.281 15.7344 159.77 15.0521 158.75 14.4688C158.583 14.3646 158.364 14.2396 158.093 14.0938C157.833 13.9375 157.52 13.7604 157.156 13.5625C156.791 13.3646 156.437 13.1719 156.093 12.9844C155.75 12.7865 155.416 12.599 155.093 12.4219C153.927 11.7344 153.057 10.875 152.484 9.8438C151.922 8.80208 151.64 7.63542 151.64 6.34375C151.64 5.15625 151.932 4.08333 152.515 3.125C153.099 2.17708 153.859 1.42708 154.796 0.875C155.744 0.3125 156.77 0.03125 157.875 0.03125C159.01 0.03125 160.052 0.3125 161 0.875C161.948 1.44792 162.703 2.20833 163.265 3.15625C163.838 4.10417 164.125 5.16667 164.125 6.34375V8.96875C164.125 9.05208 164.083 9.09375 164 9.09375H160.406C160.323 9.09375 160.281 9.05208 160.281 8.96875L160.25 6.34375C160.25 5.59375 160.015 4.98438 159.546 4.51562C159.078 4.04688 158.52 3.8125 157.875 3.8125C157.218 3.8125 156.656 4.0625 156.187 4.5625C155.718 5.0625 155.484 5.65625 155.484 6.34375C155.484 7.04167 155.63 7.625 155.922 8.09375C156.224 8.5625 156.77 9.01042 157.562 9.4375C157.645 9.4792 157.838 9.5833 158.14 9.75C158.442 9.9167 158.776 10.1042 159.14 10.3125C159.515 10.5104 159.854 10.6927 160.156 10.8594C160.458 11.0156 160.64 11.1094 160.703 11.1406C161.765 11.7344 162.604 12.4635 163.218 13.3281C163.843 14.1927 164.156 15.2552 164.156 16.5156C164.156 17.7344 163.875 18.8281 163.312 19.7969C162.739 20.7656 161.979 21.5312 161.031 22.0938C160.083 22.6562 159.031 22.9375 157.875 22.9375Z" fill="white"/>
</svg>
